<svg width="1000" height="522" viewBox="0 0 1000 522" fill="none" xmlns="http://www.w3.org/2000/svg">
<path d="M856.6 266V266.5L855.9 268.2L854.4 270.1L852.3 271.1L844.9 272.2L835.5 276.1L819.6 281.2L816.6 281.4L810.4 288.7L809.2 289.8L802.6 292.4L801.7 293.6L776.6 284.9L766.1 283.7L770.5 275.2L771.1 272.5L770.8 271.4L767.4 263.1L748.5 237.8L743.6 228.9L740.3 224.1L743 217.6L741.8 199.1L743.1 191.6L743 189.3L741.1 182.3L740.9 180.2L741.4 178L742.6 175.7L743.8 172.2L744.4 167.1V163.7L745.6 158.5L746.3 133.1L746.1 129.5L746.5 127.8L747.3 126.3L748.5 125.9L749.7 125.7L751 125.3L752.3 124.3L761 113.9L762.6 113L763.8 113.1L766.5 113.9L767.8 113.7L769.2 113L773.2 109.3L778 104.1L780.7 105L784.6 105.6H787.3L788.2 106.9L788.4 107.2L792.1 108.5V109L791.3 111.3L792.6 113.1L800.4 122.4L809.6 125.5L815.6 130.7L816 130.5L819 130.2L821.4 130.8L825.1 132.9L826 134.3L833.7 135.7L832.3 138.4L829.9 146L812.6 146.4L813.1 155.6L823.7 158.8L831.9 167.4L831.7 178.4L829.5 187.6L816.8 205.5L815 217.2L820.9 239.6L823.5 243.9L831.2 250.2L833.5 255.3L837.8 260.1L844 262L850.6 263.3L856.6 266Z" fill="white" stroke="#54AFF6" stroke-width="0.5" stroke-linecap="round" stroke-linejoin="round"/>
<path d="M778 104.1L773.2 109.3L769.2 113L767.8 113.7L766.5 113.9L763.8 113.1L762.6 113L761 113.9L752.3 124.3L751 125.3L749.7 125.7L748.5 125.9L747.3 126.3L746.5 127.8L746.1 129.5L746.3 133.1L745.6 158.5L744.4 163.7V167.1L743.8 172.2L742.6 175.7L741.4 178L740.9 180.2L741.1 182.3L743 189.3L743.1 191.6L741.8 199.1L743 217.6L740.3 224.1L743.6 228.9L740.9 229.7L739.8 229.9L738.4 230.7L737.6 232.1L737.9 237.1L737.6 239.6L731 245L728.3 247.9L726.1 253.1L727.7 256.8L729.7 259.4L730.1 260.8L729.7 266.3L726.1 275.5L704.3 287.3L698.1 277.4L696.2 276.3L691.1 275.3L686.4 275L680.6 277L665.6 290.2L651.7 287.3L647.5 278.8L647.6 277.3L648 275.3L649.2 273.9L650.5 272.2L654.7 262.9L650.5 257.2L647.4 255L646 253.1L645.4 251.4L645.7 250.1L646.4 248.5L646.5 246.6L645.9 239.4L643.5 233.9L643.6 232.8L644 230.8L646.4 222.8L648.3 216.4L647.9 209.3L646.8 202.4L646 199.3L645.1 197.1L637.5 189.7L636.3 188.9L635 188.6L630.8 188L629 187.1L628.4 186.1V179L625.7 167.1L624.8 165.1L623.1 164.4L620.5 162.7L619.3 162.2L617.4 161.7L616.3 161L614.7 159.3L612.6 156.2L608.7 152.2L604.8 150.4L604.2 142.5L600.1 132.9L598.6 131.2L597.2 130.6L594.2 129.9L592.5 129.3L590.6 128.3L587.5 125.5L586.4 123.9L586.2 122.5L587.5 119.9L587.8 117.7L588.5 116.2L589.8 114.8L592.4 113.1L593.2 111.7L593.8 109.5L593.5 102.2L592.6 99.2L592.3 96.7V93.6L593.6 83.9L602.7 86.3L611.3 86.8L615.6 91.8L622.9 97.8L636.2 104.2L651.1 112.4L666.3 118.2L700.2 129.8L700 128.6L698.6 123.2L700.7 121.1L702.6 119L703.8 117L704.1 113.8L703.7 110.7L703.6 109.8L706.7 109L709.7 107L710.8 105.3L713.1 104.1L715.2 103.6L716.8 103.2L718 103.1L719.3 104L721.6 105.7L723.5 107.2L729 107.8L730 107L731.7 104.8L733.2 103.1L733.8 101.4L734 100.8L734.1 99.7L735 97.3L736.5 95.2L737.3 94L737.9 92.9L739.4 91.8L741.4 91.9L742.7 90.4L744.1 88.4L744.3 86.8L743.4 85.4L743.2 83.7L743.3 82.7L743.6 83.5L752.3 91.5L773.2 102.4L778 104.1Z" fill="white" stroke="#54AFF6" stroke-width="0.5" stroke-linecap="round" stroke-linejoin="round"/>
<path d="M593.6 83.8999L592.3 93.5999V96.6999L592.6 99.1999L593.5 102.2L593.8 109.5L593.2 111.7L592.4 113.1L589.8 114.8L588.5 116.2L587.8 117.7L587.5 119.9L586.2 122.5L586.4 123.9L587.5 125.5L590.6 128.3L592.5 129.3L594.2 129.9L597.2 130.6L598.6 131.2L600.1 132.9L604.2 142.5L604.8 150.4L608.7 152.2L612.6 156.2L614.7 159.3L616.3 161L617.4 161.7L619.3 162.2L620.5 162.7L623.1 164.4L624.8 165.1L625.7 167.1L628.4 179V186.1L629 187.1L630.8 188L635 188.6L636.3 188.9L637.5 189.7L645.1 197.1L646 199.3L646.8 202.4L647.9 209.3L648.3 216.4L646.4 222.8L644 230.8L643.6 232.8L643.5 233.9L645.9 239.4L646.5 246.6L646.4 248.5L645.7 250.1L645.4 251.4L646 253.1L647.4 255L650.5 257.2L654.7 262.9L650.5 272.2L649.2 273.9L648 275.3L647.6 277.3L647.5 278.8L651.7 287.3L646.2 289.1L645.3 289.6L641.3 293.7L640.5 296.7L639.8 297.5L638 298.5L636 299.4L629.8 299.7L626.3 302.4L623.1 302.9L614.7 306.8L606.1 302.7L602.9 299.2L602.3 297.8L601.7 296.8L599.3 294.9L597.1 292.4L595.9 291.5L594.4 291.1L593 290.9L591.5 291L589.8 291.2L588 292.2L586.5 293.2L585.2 299.8L570.4 283.5L564.9 279.5L562.8 278.5L559.3 277.3L556.8 276.2L555.4 275.2L554.2 273.4L553.3 272.6L552.2 272L549.5 271.4L542.8 269L540.6 262.9L542.1 259.1L540.9 251.3L534.6 229.6L532.4 228.2L531.4 224.4L530.3 216L529.7 215.1L528.4 214.1L528.1 212.8L528 210.5L528.5 206.8L528.6 204.4L528.8 202.6L530.8 196L531.5 188V184.4L531.2 181.7L530.6 180.3L530 179.1L526.8 174.4L526.1 173.6L524.8 172.8L523.3 172.3L521.8 172.2L520.6 172.4L519.7 172.6H518.8L518 172L517.3 171.1L515 169.4L513 157.2L513.3 155.9L514 154.4L514.9 154.5L516.3 153.6L518 151.3L521 145.4L522.4 136.6L522.1 133.6L521.8 131.8L521.2 130.6L520.5 129.5L519.8 128.3L519.3 126.1L518.9 124.7L518.1 123.5L517.4 122.9L516.5 122.6L513.2 121.8L512.6 121.3L511.9 120.2L511.1 118.2L510.4 115.8L509.7 114.4L508.8 113.3L508.6 112.6L508.7 111.9L509 111.3L509.7 110.6L510.4 109.4L511.2 107.9L511.9 105.1V103L511.3 100.8L505.3 93.0999L509.6 85.8999L517.8 78.5999L522.5 77.9999L527.2 78.0999L544.9 80.5999L548.5 79.7999L549.7 79.8999L556.7 79.3999L565.9 80.6999L572.5 76.1999L575.4 74.8999L585.9 81.8999L593.6 83.8999Z" fill="white" stroke="#54AFF6" stroke-width="0.5" stroke-linecap="round" stroke-linejoin="round"/>
<path d="M85 320.7L87.3 318.9L89.4 310L95.6 305.3L104.4 306.1L109 315.1L119.3 317.2L136.6 324.5L137.6 323.7L137.3 321.5L137.6 318.8L138.9 317.6L142.5 315.4L147.4 312.6L147.7 312.3L148.9 310.2L154 305.1L160.9 301.4L161.2 298.9L161.6 296.8L163.4 294.9L166.5 292.1L167.4 291.2L167.3 289.9L164.5 287.6L162.7 285.9L162.2 283.6V281L161.6 279.5L159.1 276.8L155.7 274L155.2 273.6L155 272.1L154.3 271L153.7 270.7L152.5 270.9L151.3 271.3L150.7 271.4L150.2 271L148.5 266.8L147 264.1L143.7 261.4L143.8 256.4L144 255.2L145 253.5L146 252L146.1 250.7L146 249.2L145.7 244.5L146.1 242.2L147.4 241.2L149.3 240.6L151.5 240.2L153.9 239.1L156.7 237L159.5 234L161.5 231L162 230.1L164.1 231.2L165.4 231.5L166.9 232.2L170.2 234.7L171 235.1H172L173 234.9L174.2 234.3L175.7 234.5L177 236.5L181.9 251.6L182.7 255.3L185.2 260.4L188.5 263.1L190.4 265.2L192.2 266.4L193.1 271.2L196.2 275.6L203.4 288.3L207.6 294L218.9 310.4L216.6 313.8L213.2 316.7L211.5 317.6L207.5 319.1L205.9 320.1L204.3 321.9L203.2 324L202.7 326.6L205 331.8L205.4 335L207.8 341.9L210 348.1L211.2 349.8L213.1 351.7L213.7 353.3L213.4 355.4L211 358.8L208 364.2L207.6 369.8L195.2 367.4L189.4 370L186.9 375.4L186.2 377.8L182.7 383.3L182.4 383.6L170.1 367.6L161 375.8L157 375.5L156.2 374.3L155.5 371.7L155 370.6L154.5 369.6L154 368.6L153.3 367.7L152.8 366.9L152.5 365.9L152.1 364.1L151.1 362L131.5 360.1L126.3 357.7L126 356.7L125.9 355.6L125.6 354.4L125 353.2L123.8 351.1L123.2 349.7L122.8 348.4L122.6 347.3V346.6V346V345.3L122.4 344.5L121.9 343.3L121.4 342L121.3 340.6L120.1 337.7L119.3 337.2L118.4 337.3L116.7 338.4L116 339.1L114.5 340.3L111.5 340.7L105 333.4L101.6 326.8L100.3 325.8L98.2 324.6L88.6 322L85 320.7ZM152.4 218.7L154.8 220.1L158.7 224L159.6 226.9L162 228.4V229.9L159.4 227.3L158.2 223.7L154.8 220.9L153.2 220L152.4 218.8V218.7Z" fill="white" stroke="#54AFF6" stroke-width="0.5" stroke-linecap="round" stroke-linejoin="round"/>
<path d="M85 320.7L88.6 322L98.2 324.6L100.3 325.8L101.6 326.8L105 333.4L111.5 340.7L114.5 340.3L116 339.1L116.7 338.4L118.4 337.3L119.3 337.2L120.1 337.7L121.3 340.6L121.4 342L121.9 343.3L122.4 344.5L122.6 345.3V346V346.6V347.3L122.8 348.4L123.2 349.7L123.8 351.1L125 353.2L125.6 354.4L125.9 355.6L126 356.7L126.3 357.7L131.5 360.1L151.1 362L152.1 364.1L152.5 365.9L152.8 366.9L153.3 367.7L154 368.6L154.5 369.6L155 370.6L155.5 371.7L156.2 374.3L157 375.5L161 375.8L170.1 367.6L182.4 383.6L182.7 383.3L186.2 377.8L186.9 375.4L189.4 370L195.2 367.4L207.6 369.8L203.7 372.1L202.4 374.4L201.5 378L202.4 383.9L202.5 391.7L205.7 392.3L207.2 393L208.6 394.2L210 395.7L211.1 398L211.7 399.5L210.7 406.1L200.2 420.5L190.9 427.1L191.9 429.8L192.7 430.4L194 430.5L194.8 430.1L195.8 429.9L197.4 430.4L202.9 433.4L205 435L206.3 439.7L207.1 441.4V442.8L206.8 443.9L207 444.6L208.1 444.9L213.8 443.6L216 443.7L217.3 444L218.3 448.8L218.4 455.3V455.4L211 450.2L199.8 453.2L196 453L192.6 453.4L189.7 455.7L186.9 458.6L183.7 460.7L176.1 462.7L168.5 463.5L153.2 462.6L144.6 460.2L140.8 455.8L138.6 449.6L134.9 442L130.7 437.2L124.4 432.5L117.6 429.4L111.8 429.8L109.3 431.7L106.2 432.5L103 432.2L100.2 430.5L98.3 427.4V424.5L98.7 421.3L98.1 417.6L93.2 411.7L87.8 412.4L82.5 416.8L78.4 422.6L76.7 407.5V390.9L75.4 383.1L71.9 376.2L65.8 371.6L48.8 362.6L46.3 360.7L45.5 360.1L47.7 351.3L52 341.3L57.8 332.7L64.7 328L81 323.7L85 320.7Z" fill="white" stroke="#54AFF6" stroke-width="0.5" stroke-linecap="round" stroke-linejoin="round"/>
<path d="M207.6 369.8L208 364.2L211 358.8L213.4 355.4L213.7 353.3L213.1 351.7L211.2 349.8L210 348.1L207.8 341.9L226.8 342.4L234.4 343.8L237.9 345.3L242.5 347.8L244.7 348.5L253 349.7L255.6 348.6L255.9 347.7L256 346.6L255.8 345.7L255.4 344.7L255.1 343.6L254.9 341.4L255.1 338.7L258.9 327.1L260.7 323.1L261.7 320.1L262.4 312.6L266.9 316L268.6 319.4L269.7 322.7L270.6 326.9L271.5 328.1L272.6 328.5L274.5 327.9L283 330.3L284.4 331.2L285 333.7L269.7 344.4L264.1 351.8L264.4 354.3L271.4 358.2L274.4 360.5L281.1 363.9L287.3 363.1L291.3 369L296.5 384.2L302.9 386.4L304.4 389.5L304 391.2L303.4 392.6L302.7 396.7L319.7 396.8L325.1 407.5L326.4 411.4L329.9 424.9L325.3 434.4L325.1 438.2L325.6 439.4L328.7 443.9L330 447.9L330.2 450.9L329.9 454.9L329.2 458.6L328.7 460.8L326.9 464.4L326.3 465.3L324.7 466.7L322.9 471.1L320.5 472.7L317.7 480.1L318.8 486.4L320.9 489.5L322.5 491.2L323 492.3L322.9 495.5L322.8 496.6V496.7L318.5 496L304 489.5L298 489.3L288.6 493.2L283.6 493.3L280.2 490.6L284.6 482.3L284 477L277.2 471.5L266.4 467.4L255.3 465.6L238.4 467.6L228.8 462.6L218.4 455.4V455.3L218.3 448.8L217.3 444L216 443.7L213.8 443.6L208.1 444.9L207 444.6L206.8 443.9L207.1 442.8V441.4L206.3 439.7L205 435L202.9 433.4L197.4 430.4L195.8 429.9L194.8 430.1L194 430.5L192.7 430.4L191.9 429.8L190.9 427.1L200.2 420.5L210.7 406.1L211.7 399.5L211.1 398L210 395.7L208.6 394.2L207.2 393L205.7 392.3L202.5 391.7L202.4 383.9L201.5 378L202.4 374.4L203.7 372.1L207.6 369.8Z" fill="#1B80CF" stroke="#54AFF6" stroke-width="0.5" stroke-linecap="round" stroke-linejoin="round"/>
<path d="M322.8 496.7V496.6L322.9 495.5L323 492.3L322.5 491.2L320.9 489.5L318.8 486.4L317.7 480.1L320.5 472.7L322.9 471.1L324.7 466.7L329.6 465.3L330.9 465.1H332.8L333.9 465.3L337.5 466.9L338 465.1L338.4 464.3L338.8 463.2L338.9 461.9L338.6 459.4L339.4 458.8L341 458.7L344.6 460.3L346.4 461.8L349.1 464.8L351 465.6H353.5L360.5 462.9L362.1 462L363.6 458.2L364 459.8L364.2 460.5L364.4 461.4L364.9 462.1L365.7 462.6L366.7 462.4L367.6 461.5L368.7 459.1L369.4 456.5L369.7 454.3L369.6 451.5L370.3 450.9L371.5 451L373.8 452.8L374.6 454.9L375.3 457.2L375.4 459.2L376.1 460.5L377.4 461.4L378.9 461.7L380 461.5L380.3 460.4L379.7 460.3L379 459.9L378.4 459.4L379.4 457.9L380.4 456.7L390.4 449.9L392.9 452.9L393.4 456.4L396.4 460.8L398.1 462L401.7 462.7L407.9 463.9L410 462.9L411.5 461.4L412.8 459.6L416.2 457.2L419 456.1L423.9 455.1L425.6 454.4L426.6 453.3V451.1L426.5 450.3L426.3 449.6L426 448.9V447.9L426.2 446.7L435.8 432.1L440.1 429.3L442 425.9L442.2 422.9L444.4 418.7L449 413.9L453.3 407L452.8 396.6L457 392.3L459.6 384.9L460.2 381.9L460.7 375.9L461.6 374L465.4 369.9L467.5 368.1L471.8 365.1L475 363.4L478.9 360.8L473.8 354.2L473.9 349.4L476.5 346.2L480.3 342.3L497.4 352L506.1 359.2L509.5 361.3L511.6 363.7L513.2 364.8L514.5 365.4L515.7 365.7L516.8 365.8L518 365.7H519.5L521.1 365.9L525.1 367.3L529.1 367.8L530.7 372.6L535.5 377.5L540 381L547 384.9L550.9 386.5L552.4 386.9H553.8L555.2 386.4L557.5 385.2L559.8 384.2L566.1 387.6L568.6 390.5L569.8 392.4L570.2 395.6L570.8 398.3L572.4 400.2L573 401.8V405L573.3 406.8L574 409.2L574.3 410.6L573.7 413L572.1 415.5L573.3 420.3L575.9 421.6L584 422.9L585.3 423.8L587.2 425.4L589.4 429L591.1 431L592.3 431.7L593.9 432L595 432.8L596.4 434.6L599 436.2L601 439.8L601.6 441.7L604.4 447.2L605 448.7L606.1 455.1L607.9 459.1L609.4 460.7L610.9 461.5L615.4 460.4L625.4 461.4L627.9 462L629.3 462.2L639.3 461.4L640.2 461.1L641.2 460.5L645.8 458.4L648.4 470.4L647.8 471L647 471.5L645.4 472L644.9 473L644.8 473.1L583.3 476.7L548.3 472.7L517.8 456.8L492.7 438.8L483.6 437.4L478.1 439.2L474.2 442.3L470.6 446L466.2 449.4L461.2 451L451.2 450.6L446.3 451.1L437.2 457L430.4 475.2L423.6 481.4L413.3 484.3L382.5 487.3L365.4 491.9L359.5 492.5L356.8 492.1L351.3 490.4L350.9 490.3L348.8 490L347.8 489.5L345.6 487.5L344.5 487.4L343.1 488.6L342.5 490.2L342.4 491.6L342.3 492.2V492.9L341.9 494.7L341 496.7L339.7 498.1L338.7 498.2L336.1 497.1L335.1 496.8L324.3 496.9L322.8 496.7Z" fill="white" stroke="#54AFF6" stroke-width="0.5" stroke-linecap="round" stroke-linejoin="round"/>
<path d="M585.2 299.8L586.5 293.2L588 292.2L589.8 291.2L591.5 291L593 290.9L594.4 291.1L595.9 291.5L597.1 292.4L599.3 294.9L601.7 296.8L602.3 297.8L602.9 299.2L606.1 302.7L614.7 306.8L623.1 302.9L626.3 302.4L629.8 299.7L636 299.4L638 298.5L639.8 297.5L640.5 296.7L641.3 293.7L644.7 304.2L646.8 309.1L649.4 319.1L652 325.7L653 326.3L657 330L657.7 331.8L658 333L658.1 338.1L660.8 341.8L661.2 346.7L660.7 351.6L660.4 353.5L658.6 358L656.8 363.3L657.3 371.5L666.2 391.1L676.4 394.2L677.6 395.1L680.9 398.4L683.4 412.2L684.9 413.8L687.2 415.7L689.5 416.1L691.5 417.1L694.2 419.1L696.1 422L698.2 423.9L700.5 425L701.8 425.1L704.9 423.1L709.7 423.5L706.7 434.6L703.9 439.2L699.2 441.2L686.4 441.8L684 447.3L683.2 447.2L682.1 446.8L681.5 446.9L678.1 449L666.3 451.7L664.6 452.6L662.7 454.1L661.4 456.3L661 458.1L660.2 460.1L659.9 461.3L660 462.6L663.3 471.3V471.4L661.9 472.1L644.8 473.1L644.9 473L645.4 472L647 471.5L647.8 471L648.4 470.4L645.8 458.4L641.2 460.5L640.2 461.1L639.3 461.4L629.3 462.2L627.9 462L625.4 461.4L615.4 460.4L610.9 461.5L609.4 460.7L607.9 459.1L606.1 455.1L605 448.7L604.4 447.2L601.6 441.7L601 439.8L599 436.2L596.4 434.6L595 432.8L593.9 432L592.3 431.7L591.1 431L589.4 429L587.2 425.4L585.3 423.8L584 422.9L575.9 421.6L573.3 420.3L572.1 415.5L573.7 413L574.3 410.6L574 409.2L573.3 406.8L573 405V401.8L572.4 400.2L570.8 398.3L570.2 395.6L569.8 392.4L568.6 390.5L566.1 387.6L559.8 384.2L557.5 385.2L555.2 386.4L553.8 386.9H552.4L550.9 386.5L547 384.9L540 381L535.5 377.5L530.7 372.6L529.1 367.8L532.1 364.6L536.5 362.8L538.4 361.4L542 358L543.9 356.9L545.4 356.6L546.7 357.5L547.9 358.6L549.1 359.4L550.7 359.9L560.7 359.2L562.3 358.6L562.8 357.9L562.4 357L554.7 346.8L552.8 343.4L572.7 334.2L580.4 328.6L581.1 327.2L581 326.1L580.9 325.3L580.8 324.5L580.9 323.7V322.7L580.8 321.6L580.2 319.6L580.7 316.2L583.2 309.7L585.2 299.8Z" fill="white" stroke="#54AFF6" stroke-width="0.5" stroke-linecap="round" stroke-linejoin="round"/>
<path d="M932.1 352.4L931.3 353.5L929.4 357.9L928 363.2L927.2 368.8V374.4L930.5 384.2L944 397.8L948.6 407.5L953.2 425L952.3 429.8L950.2 440.1L940.2 450L923.8 452.5L919 450.2L910.4 442.8L905.7 440.8L901.6 442L902.2 446V450.5L896.4 453.2L899.6 457.3L899.9 462.3L897.7 465.8L893.4 465.2L890.6 461.1L889.8 456.1L888.3 451.7L883.2 448.9L875.1 450.5L857.9 461.8L849.9 465.6L836.8 467.3L832.5 467L820.5 463.4L815.7 463.6L805.8 467L800.8 467.4L797.2 464.2L791 450.7L788.4 446.8L784.5 445.6L773.6 445L769.8 445.6L765 448.9L762.2 453.7L760 459.2L756.9 464.8L753.4 468.3L749.2 471.1L744.6 473.1L740.1 474.4L734.6 474.5L730.8 473L722.8 468.1L713.5 466L694.2 466.4L684.7 465.2L676.6 465.3L663.3 471.4V471.3L660 462.6L659.9 461.3L660.2 460.1L661 458.1L661.4 456.3L662.7 454.1L664.6 452.6L666.3 451.7L678.1 449L681.5 446.9L682.1 446.8L683.2 447.2L684 447.3L686.4 441.8L699.2 441.2L703.9 439.2L706.7 434.6L709.7 423.5L713.4 423.9L721 424.6L731.6 423.3L734.1 423.8L735.7 424.6L737.4 427.5L739.3 429.1L741.9 430.9L748.1 431.4L751.3 438.7V440L751 441.5L750.1 442.8L747.8 451.7L755.3 454.6L758.7 453.3L761.5 447.6L763.8 445L765.9 442.7L768.9 439.8L772.5 435.8L776.4 429.3L777.2 426.9V425.1L776.2 420.9L776.5 417.7L777 415.7L781.7 406.5L782.4 403.9L792.7 400.6L796.6 403H796.7L818.5 390.5L830.7 393.2L867.4 380.2L873.4 369.3L879 364.3L891.6 360.2L898.5 359L902.5 359.3L903.1 358.7L903.3 357.6L903.8 347.8L903.3 342.2L903.9 337.6L905.3 334L906.6 332.9L907.9 332.6L909.2 333.5L910.1 334.7L910.7 336.1L912.1 341L912.8 342.7L914.3 345.8L914.7 347.1L915.4 348.4L916.7 349.6L918.8 350.8L921.3 351.5L923.7 351.9L931.4 352.3L932 352.4H932.1Z" fill="white" stroke="#54AFF6" stroke-width="0.5" stroke-linecap="round" stroke-linejoin="round"/>
<path d="M856.6 266L870.8 267L880.8 265.5L891.7 264.1L903.6 266L920.6 263.2L923.8 262.2L936.9 270L953.5 313.4L954.5 317.1L952.7 322.3L944.2 329.5L940.5 334.1L939.5 336.8L938.6 342.6L937.8 345.2L936.3 347.7L932.8 351.4L932.1 352.4H932L931.4 352.3L923.7 351.9L921.3 351.5L918.8 350.8L916.7 349.6L915.4 348.4L914.7 347.1L914.3 345.8L912.8 342.7L912.1 341L910.7 336.1L910.1 334.7L909.2 333.5L907.9 332.6L906.6 332.9L905.3 334L903.9 337.6L903.3 342.2L903.8 347.8L903.3 357.6L903.1 358.7L902.5 359.3L898.5 359L891.6 360.2L879 364.3L873.4 369.3L867.4 380.2L830.7 393.2L818.5 390.5L796.7 403H796.6L792.7 400.6L794.3 388L793.9 387.6L784.2 387.5L780.5 385.7L779.4 384.7L773.6 380.8L772.7 380.1L771.6 378.8L769 374.1L767 371.3V369.9L767.5 367.7L770.2 364.3L773.9 357.9L762.6 356.5L763.3 352.8L764 337.2L766 332L776.5 321.7L787.4 316.2L786.7 312.4V311.3L786.4 310.2L785.9 308.8L784.2 305.8L784.1 304.6L783.5 303.3L782.2 302.1L774.9 298L771.1 294.4L764.7 290.2L767.4 287.4L766.1 283.7L776.6 284.9L801.7 293.6L802.6 292.4L809.2 289.8L810.4 288.7L816.6 281.4L819.6 281.2L835.5 276.1L844.9 272.2L852.3 271.1L854.4 270.1L855.9 268.2L856.6 266.5V266Z" fill="white" stroke="#54AFF6" stroke-width="0.5" stroke-linecap="round" stroke-linejoin="round"/>
<path d="M287.3 363.1L281.1 363.9L274.4 360.5L271.4 358.2L264.4 354.3L264.1 351.8L269.7 344.4L285 333.7L284.4 331.2L283 330.3L274.5 327.9L272.6 328.5L271.5 328.1L270.6 326.9L269.7 322.7L268.6 319.4L266.9 316L262.4 312.6L262.3 311.6L262 304.5L261 303.1L259.3 301.2L252.4 297L254.4 288.7L254 285.7L253.4 283.3L252.3 282.1L248.9 280.8L247.8 280.5L245.5 279.4L243.6 276.1L244 264.7L246 251L246.3 243.9L246.9 240.1L249 235.3L246 233.9L243.1 231.3L239.2 223.5L233.1 215.1L228.3 210.5L225.9 209L224 208.4L219.8 209L227.2 200.4L223.2 194.4L222.8 192.7L222.3 188.8L222.2 186.8L222.8 177.9L217.6 179.6L213.7 182L210.9 182.5L204.3 182.9L201.3 184.4L198.4 186.3L196.1 186.8L194 186.5L188.4 184.5L187.5 183.9L185.8 182.2L184.6 181.5L180.5 180.4L179.1 179.7L179 178.1L178.3 174.8H178.2L178.5 171.9L179.2 168.1L180.5 165.9L181.1 164.3L182.6 162L184.2 160.7L186.8 159.6L187 159.5L189.1 157.8L190.7 155.2L191.9 153.2L194.2 151.2L195.1 150.6L199.6 148.5L204.2 145H204.3H204.5L218.8 134.9L225.6 128.3L226 127.3L226.8 125.6L227.8 124L231.2 119.7L233 117.7L234 116.3L235.3 113.8L236.5 112.2L237.8 109.3L238.6 107.1L239.4 105.4L240 103.9L241.6 104.1L243.9 105L251.3 109.2L254.6 113.6L256.2 123.9L257.9 126.8L261.5 128.2L268.1 129.5L268.9 130.1L268.7 131L266.8 132.4L265.4 133.1L263.9 134.1L262.6 135.4L253.3 147.7L252 150.1L251.4 151.7L251.8 154.1L252.3 155.8L252.4 157.9L252.2 160.3L250.7 166.8L248.5 169.4L249.1 171.4L249.6 172.2L250.2 173.1L250.8 173.9L251.5 174.6L252.2 175.1L253 175.6L253.9 176L254.8 176.1L255.8 175.8L257.7 172.8L259.4 170.5L260 169.5L261.9 168.5L267.8 168.9L268.5 172.5L270.4 177.4L270.9 179.8L272 181.2L273 182.1L283.2 188L287.3 194.3L287.9 195.5L289.2 202.9L289.4 209L288.5 212.7V214.7L289.2 217.2L290.6 220L292.8 222.8L294.5 225.5L296.6 230.5L298 233.3L301.7 236.8L305 241.9L312.3 236L323.4 232.3L325.3 235.3L329.8 242.1L330.2 243.6L331.7 245.4L332.5 246.1L339 247L339.5 249.7L339.4 251.3L338.9 254.4L337.9 258.2L333.6 262.2L319.5 266.1L318.2 271.8L317.8 277.5L319.9 283.7L305.5 296.3L307.6 298.9L309.8 300.5L310.6 300.9L311.1 301.6V304.8L310.6 308.1V326.6L307.5 326L305.3 332.5L303.5 335.5L301.2 337.8L299.5 338.8L296.5 340L295 340.8L293.6 341.8L292.3 344.1L290.9 347.8L289.9 354.9L287.3 363.1Z" fill="#1B80CF" stroke="#54AFF6" stroke-width="0.5" stroke-linecap="round" stroke-linejoin="round"/>
<path d="M207.8 341.9L205.4 335L205 331.8L202.7 326.6L203.2 324L204.3 321.9L205.9 320.1L207.5 319.1L211.5 317.6L213.2 316.7L216.6 313.8L218.9 310.4L207.6 294L203.4 288.3L196.2 275.6L193.1 271.2L192.2 266.4L190.4 265.2L188.5 263.1L185.2 260.4L182.7 255.3L181.9 251.6L177 236.5L175.7 234.5L174.2 234.3L173 234.9L172 235.1H171L170.2 234.7L166.9 232.2L165.4 231.5L164.1 231.2L162 230.1L162.1 230L162 229.9V228.4L159.6 226.9L158.7 224L154.8 220.1L152.4 218.7L152.3 218.5L153 214.9L159.1 205.6L160 204.8L163.2 202.7L165.7 201.5L166.6 201.1L167.9 199.7V197.8L167.8 197.5V196.8L169.5 194.1L169.8 193.7L170.8 192.3L171.9 190.1L172 189.7L173.1 186.3L174 185.5L174.6 185L175.9 184.9L177.5 184.8L178.5 184.2L179.7 181.5L179.1 180V179.7L180.5 180.4L184.6 181.5L185.8 182.2L187.5 183.9L188.4 184.5L194 186.5L196.1 186.8L198.4 186.3L201.3 184.4L204.3 182.9L210.9 182.5L213.7 182L217.6 179.6L222.8 177.9L222.2 186.8L222.3 188.8L222.8 192.7L223.2 194.4L227.2 200.4L219.8 209L224 208.4L225.9 209L228.3 210.5L233.1 215.1L239.2 223.5L243.1 231.3L246 233.9L249 235.3L246.9 240.1L246.3 243.9L246 251L244 264.7L243.6 276.1L245.5 279.4L247.8 280.5L248.9 280.8L252.3 282.1L253.4 283.3L254 285.7L254.4 288.7L252.4 297L259.3 301.2L261 303.1L262 304.5L262.3 311.6L262.4 312.6L261.7 320.1L260.7 323.1L258.9 327.1L255.1 338.7L254.9 341.4L255.1 343.6L255.4 344.7L255.8 345.7L256 346.6L255.9 347.7L255.6 348.6L253 349.7L244.7 348.5L242.5 347.8L237.9 345.3L234.4 343.8L226.8 342.4L207.8 341.9Z" fill="white" stroke="#54AFF6" stroke-width="0.5" stroke-linecap="round" stroke-linejoin="round"/>
<path d="M283.2 188L273 182.1L272 181.2L270.9 179.8L270.4 177.4L268.5 172.5L267.8 168.9L261.9 168.5L260 169.5L259.4 170.5L257.7 172.8L255.8 175.8L254.8 176.1L253.9 176L253 175.6L252.2 175.1L251.5 174.6L250.8 173.9L250.2 173.1L249.6 172.2L249.1 171.4L248.5 169.4L250.7 166.8L252.2 160.3L252.4 157.9L252.3 155.8L251.8 154.1L251.4 151.7L252 150.1L253.3 147.7L262.6 135.4L263.9 134.1L265.4 133.1L266.8 132.4L268.7 131L268.9 130.1L268.1 129.5L261.5 128.2L257.9 126.8L256.2 123.9L254.6 113.6L251.3 109.2L243.9 105L241.6 104.1L240 103.9L240.1 103.7L240.2 103.3L240.4 102.2L240.5 100.8L241.1 98.8L242.4 98.0999L242.7 98L245.3 96.8999L245.9 96.0999L245.5 93.8999L245.1 93.5L242.7 91L242.9 90L245 87.8999L246.8 85.8L251.4 80.8L251.6 80.4L252.6 80L257.9 75.6999L260.4 72.5L267.2 67L269.2 64L270.6 63L272.6 62.2999L273.5 60.7L276 58.2L277.9 55.5999L280.3 54.9L312.8 49L323.1 44.2999L325.7 39.5L327.8 38.4L330.4 34.2L329.7 33.4L328.9 33.0999L329.9 30.6L330.8 29.9L331.6 29.5V29.1L334 27.1L336.6 25.4L337.1 25.7999L342 23.7L350.8 24.2L357.6 27.9L363.4 33.5L371.5 37.2999L382.4 35.9L399.6 45.2L410.5 48.5999L421.3 49.2L421.6 48.5999L421.8 48L422.1 46.5999V44.5999V41.7L422.5 41.2999H422.6H427.8L431.1 41.5999L433.5 42.0999L433.9 39.5999L434.5 35.5L439.8 34.7L447.4 42.2L454.4 48.2L468.2 48L479.3 51.5L482.4 52.5L492.3 59.9L503.8 66.9L515.6 68.3L519.3 70.3L517.8 78.5999L505.6 78.9L503.8 80.1999L499.7 83.4L499 89.7L497.3 93.5999L494.4 98.0999L491.9 100.4L483.4 105.5L481.7 108.4L481.3 111L481.8 112.7L481.6 115.1L481.8 116.5L482.5 117.9L483 119.4L483.3 120.8V123.8L483.7 125.7L483.8 127.4L483.1 129L481.6 130.2L478.7 130.4L477 130.7L475.4 130.8L471.7 129.7L469.9 129.8L468.3 130.4L466.7 131.9L465.4 132.8L463.8 132.9L461.5 131.4L457.8 128.1L452.5 119.3L451.9 117.5V116.7L452.1 115.9L452.4 115.1L452 113.6L451.1 111.9L446.6 108L442.2 108.2L433.3 108.8L432 109.1L430.8 110L429.6 111.7L427.7 116.9L416.2 136.7L415.2 139L413.4 141.4L411 143.9L405.6 146.9L402.6 148L397 148.9L395.7 149.3L394.5 149.6H393.2L392.1 150.8L391.3 151.8L389.8 161.7L385.3 160.6L384.2 159.9L381.1 157.5L368.5 152.4L361.9 146.9L360.4 145.9L358.9 145.7L357 146.2L353.8 147.7L351.9 148.3L350.1 148.7L348.7 148.9L345.1 149.6L343.7 150.1L342.2 151.6L340.5 153.9L335.4 162.8L326.5 174.3L318.8 174.9L314.4 175.7L309.2 179.2L310.6 182.2L299.9 185.5L294.9 183.8L292.7 183.4L290.9 183.3L287.9 183.6L286.1 184.1L285 184.5L283.2 188Z" fill="white" stroke="#54AFF6" stroke-width="0.5" stroke-linecap="round" stroke-linejoin="round"/>
<path d="M473.8 354.2L478.9 360.8L475 363.4L471.8 365.1L467.5 368.1L465.4 369.9L461.6 374L460.7 375.9L460.2 381.9L459.6 384.9L457 392.3L452.8 396.6L453.3 407L449 413.9L444.4 418.7L442.2 422.9L442 425.9L440.1 429.3L435.8 432.1L426.2 446.7L426 447.9V448.9L426.3 449.6L426.5 450.3L426.6 451.1V453.3L425.6 454.4L423.9 455.1L419 456.1L416.2 457.2L412.8 459.6L411.5 461.4L410 462.9L407.9 463.9L401.7 462.7L398.1 462L396.4 460.8L393.4 456.4L392.9 452.9L390.4 449.9V449.1L389.9 446.4V445.2L390.4 442.4L390.3 441L391.2 438.9L396 436.2L398.5 431.5L402.7 426.7L405.3 418.6L405.4 409.8V408.8L406.6 399.3L406.9 392.5L404.8 389.7L406.3 384.6L405 374.6L404.6 353.7L410.2 352.2L424.1 358.4L427.8 359L437.3 358.2L441.3 356.9H442.6L443.7 357.4L447.6 360.8L450.5 362.4L453.1 364.9L460.9 360.6L466.9 358.7L473.8 354.2Z" fill="white" stroke="#54AFF6" stroke-width="0.5" stroke-linecap="round" stroke-linejoin="round"/>
<path d="M517.8 78.6L509.6 85.9L505.3 93.1L511.3 100.8L511.9 103V105.1L511.2 107.9L510.4 109.4L509.7 110.6L509 111.3L508.7 111.9L508.6 112.6L508.8 113.3L509.7 114.4L510.4 115.8L511.1 118.2L511.9 120.2L512.6 121.3L513.2 121.8L516.5 122.6L517.4 122.9L518.1 123.5L518.9 124.7L519.3 126.1L519.8 128.3L520.5 129.5L521.2 130.6L521.8 131.8L522.1 133.6L522.4 136.6L521 145.4L518 151.3L516.3 153.6L514.9 154.5L514 154.4L513.3 155.9L513 157.2L515 169.4L514.9 173.7L512.4 187.9L511.4 191.2L509.9 193.6L507.1 195.8L494.7 201.1H493.3L492 200.6L489.3 198.6L487.9 198.7L486.4 199L484.5 199.8L482.2 200.3L480.6 200.4L479.7 200.3L478.7 200L477.7 199.5L476.8 199.2L475.8 199.4L474.8 200.1L473.8 201.5L473.1 202.8L472.6 204.7L472 210.2L471.2 212.1L467.6 217L467.5 219.1L468 220.8L469.2 223.4L469.7 224.7L470.1 225.9L470.2 226.7L471.3 229.4L471.8 230.9L476.6 240.9L479.5 244.5L487.4 248.5L484.5 251.3L483.3 252.2L482.4 253.3L481.7 253.8L480.8 254L479.4 253.2L477.8 252.9L475.8 253.1L472.2 254.1L469.8 255.3L465.1 259.9L463.4 261L453.6 263.4L458.5 271.8L459.3 274.2L460.7 283.5L465 291.2L468.5 295.5L468.2 296.6L468.3 297.9L468 298.9L468.6 300.3L469.7 302L477.9 309.3L479.8 311.6L481 314.6L482.1 323.2L486.7 326L486.8 330L485.4 335L480.3 342.3L476.5 346.2L473.9 349.4L473.8 354.2L466.9 358.7L460.9 360.6L453.1 364.9L450.5 362.4L447.6 360.8L443.7 357.4L442.6 356.9H441.3L437.3 358.2L427.8 359L424.1 358.4L410.2 352.2L404.6 353.7L405 374.6L397.9 370.2L393.7 369.5L383.2 364.9L372 363.6L365.6 355L362.2 348.7L360.8 345L360.1 343.5L358.1 340.5L355.5 337.4L349.6 332.6L346.3 329.3L342.3 326.7L340.1 325.9L332 326.5L326.3 323.3L310.6 326.6V308.1L311.1 304.8V301.6L310.6 300.9L309.8 300.5L307.6 298.9L305.5 296.3L319.9 283.7L317.8 277.5L318.2 271.8L319.5 266.1L333.6 262.2L337.9 258.2L338.9 254.4L339.4 251.3L339.5 249.7L339 247H339.3L350.5 247.8H350.9L364.3 244.4L370.6 239.1L371.9 234.4H372L381.4 226.4L388.3 217.1L394.5 215.1L398.3 211.1L399 209.2L398.9 206.9L398 205.5L395.9 203.3L393.7 200.6L391.7 198.8L389.7 198L387.9 197.8L384.3 198.4L382.4 198.2L380.5 197.2L378.4 194.9L378.1 191.9L378.3 188.5L379 186.2L379.6 184.5L380.7 183L384.9 178.5L387.6 176.1L390.2 170.9L389.8 161.7L391.3 151.8L392.1 150.8L393.2 149.6H394.5L395.7 149.3L397 148.9L402.6 148L405.6 146.9L411 143.9L413.4 141.4L415.2 139L416.2 136.7L427.7 116.9L429.6 111.7L430.8 110L432 109.1L433.3 108.8L442.2 108.2L446.6 108L451.1 111.9L452 113.6L452.4 115.1L452.1 115.9L451.9 116.7V117.5L452.5 119.3L457.8 128.1L461.5 131.4L463.8 132.9L465.4 132.8L466.7 131.9L468.3 130.4L469.9 129.8L471.7 129.7L475.4 130.8L477 130.7L478.7 130.4L481.6 130.2L483.1 129L483.8 127.4L483.7 125.7L483.3 123.8V120.8L483 119.4L482.5 117.9L481.8 116.5L481.6 115.1L481.8 112.7L481.3 111L481.7 108.4L483.4 105.5L491.9 100.4L494.4 98.1L497.3 93.6L499 89.7L499.7 83.4L503.8 80.2L505.6 78.9L517.8 78.6Z" fill="#1B80CF" stroke="#54AFF6" stroke-width="0.5" stroke-linecap="round" stroke-linejoin="round"/>
<path d="M324.7 466.7L326.3 465.3L326.9 464.4L328.7 460.8L329.2 458.6L329.9 454.9L330.2 450.9L330 447.9L328.7 443.9L325.6 439.4L325.1 438.2L325.3 434.4L329.9 424.9L326.4 411.4L325.1 407.5L319.7 396.8L302.7 396.7L303.4 392.6L304 391.2L304.4 389.5L302.9 386.4L296.5 384.2L291.3 369L287.3 363.1L289.9 354.9L290.9 347.8L292.3 344.1L293.6 341.8L295 340.8L296.5 340L299.5 338.8L301.2 337.8L303.5 335.5L305.3 332.5L307.5 326L310.6 326.6L326.3 323.3L332 326.5L340.1 325.9L342.3 326.7L346.3 329.3L349.6 332.6L355.5 337.4L358.1 340.5L360.1 343.5L360.8 345L362.2 348.7L365.6 355L372 363.6L383.2 364.9L393.7 369.5L397.9 370.2L405 374.6L406.3 384.6L404.8 389.7L406.9 392.5L406.6 399.3L405.4 408.8V409.8L405.3 418.6L402.7 426.7L398.5 431.5L396 436.2L391.2 438.9L390.3 441L390.4 442.4L389.9 445.2V446.4L390.4 449.1V449.9L380.4 456.7L379.4 457.9L378.4 459.4L379 459.9L379.7 460.3L380.3 460.4L380 461.5L378.9 461.7L377.4 461.4L376.1 460.5L375.4 459.2L375.3 457.2L374.6 454.9L373.8 452.8L371.5 451L370.3 450.9L369.6 451.5L369.7 454.3L369.4 456.5L368.7 459.1L367.6 461.5L366.7 462.4L365.7 462.6L364.9 462.1L364.4 461.4L364.2 460.5L364 459.8L363.6 458.2L362.1 462L360.5 462.9L353.5 465.6H351L349.1 464.8L346.4 461.8L344.6 460.3L341 458.7L339.4 458.8L338.6 459.4L338.9 461.9L338.8 463.2L338.4 464.3L338 465.1L337.5 466.9L333.9 465.3L332.8 465.1H330.9L329.6 465.3L324.7 466.7Z" fill="white" stroke="#54AFF6" stroke-width="0.5" stroke-linecap="round" stroke-linejoin="round"/>
<path d="M339 247L332.5 246.1L331.7 245.4L330.2 243.6L329.8 242.1L325.3 235.3L323.4 232.3L312.3 236L305 241.9L301.7 236.8L298 233.3L296.6 230.5L294.5 225.5L292.8 222.8L290.6 220L289.2 217.2L288.5 214.7V212.7L289.4 209L289.2 202.9L287.9 195.5L287.3 194.3L283.2 188L285 184.5L286.1 184.1L287.9 183.6L290.9 183.3L292.7 183.4L294.9 183.8L299.9 185.5L310.6 182.2L309.2 179.2L314.4 175.7L318.8 174.9L326.5 174.3L335.4 162.8L340.5 153.9L342.2 151.6L343.7 150.1L345.1 149.6L348.7 148.9L350.1 148.7L351.9 148.3L353.8 147.7L357 146.2L358.9 145.7L360.4 145.9L361.9 146.9L368.5 152.4L381.1 157.5L384.2 159.9L385.3 160.6L389.8 161.7L390.2 170.9L387.6 176.1L384.9 178.5L380.7 183L379.6 184.5L379 186.2L378.3 188.5L378.1 191.9L378.4 194.9L380.5 197.2L382.4 198.2L384.3 198.4L387.9 197.8L389.7 198L391.7 198.8L393.7 200.6L395.9 203.3L398 205.5L398.9 206.9L399 209.2L398.3 211.1L394.5 215.1L388.3 217.1L381.4 226.4L372 234.4H371.9L370.6 239.1L364.3 244.4L350.9 247.8H350.5L339.3 247H339Z" fill="#1B80CF" stroke="#54AFF6" stroke-width="0.5" stroke-linecap="round" stroke-linejoin="round"/>
<path d="M743.6 228.9L748.5 237.8L767.4 263.1L770.8 271.4L771.1 272.5L770.5 275.2L766.1 283.7L767.4 287.4L764.7 290.2L771.1 294.4L774.9 298L782.2 302.1L783.5 303.3L784.1 304.6L784.2 305.8L785.9 308.8L786.4 310.2L786.7 311.3V312.4L787.4 316.2L776.5 321.7L766 332L764 337.2L763.3 352.8L762.6 356.5L762 359.5L759.8 366.8L756.8 373.8L753.3 379.3L748 383.6L729.7 391.9L724 396.4L719.4 402.1L712 415.3L709.7 423.5L704.9 423.1L701.8 425.1L700.5 425L698.2 423.9L696.1 422L694.2 419.1L691.5 417.1L689.5 416.1L687.2 415.7L684.9 413.8L683.4 412.2L680.9 398.4L677.6 395.1L676.4 394.2L666.2 391.1L657.3 371.5L656.8 363.3L658.6 358L660.4 353.5L660.7 351.6L661.2 346.7L660.8 341.8L658.1 338.1L658 333L657.7 331.8L657 330L653 326.3L652 325.7L649.4 319.1L646.8 309.1L644.7 304.2L641.3 293.7L645.3 289.6L646.2 289.1L651.7 287.3L665.6 290.2L680.6 277L686.4 275L691.1 275.3L696.2 276.3L698.1 277.4L704.3 287.3L726.1 275.5L729.7 266.3L730.1 260.8L729.7 259.4L727.7 256.8L726.1 253.1L728.3 247.9L731 245L737.6 239.6L737.9 237.1L737.6 232.1L738.4 230.7L739.8 229.9L740.9 229.7L743.6 228.9Z" fill="white" stroke="#54AFF6" stroke-width="0.5" stroke-linecap="round" stroke-linejoin="round"/>
<path d="M515 169.4L517.3 171.1L518 172L518.8 172.6H519.7L520.6 172.4L521.8 172.2L523.3 172.3L524.8 172.8L526.1 173.6L526.8 174.4L530 179.1L530.6 180.3L531.2 181.7L531.5 184.4V188L530.8 196L528.8 202.6L528.6 204.4L528.5 206.8L528 210.5L528.1 212.8L528.4 214.1L529.7 215.1L530.3 216L531.4 224.4L532.4 228.2L534.6 229.6L540.9 251.3L542.1 259.1L540.6 262.9L542.8 269L549.5 271.4L552.2 272L553.3 272.6L554.2 273.4L555.4 275.2L556.8 276.2L559.3 277.3L562.8 278.5L564.9 279.5L570.4 283.5L585.2 299.8L583.2 309.7L580.7 316.2L580.2 319.6L580.8 321.6L580.9 322.7V323.7L580.8 324.5L580.9 325.3L581 326.1L581.1 327.2L580.4 328.6L572.7 334.2L552.8 343.4L554.7 346.8L562.4 357L562.8 357.9L562.3 358.6L560.7 359.2L550.7 359.9L549.1 359.4L547.9 358.6L546.7 357.5L545.4 356.6L543.9 356.9L542 358L538.4 361.4L536.5 362.8L532.1 364.6L529.1 367.8L525.1 367.3L521.1 365.9L519.5 365.7H518L516.8 365.8L515.7 365.7L514.5 365.4L513.2 364.8L511.6 363.7L509.5 361.3L506.1 359.2L497.4 352L480.3 342.3L485.4 335L486.8 330L486.7 326L482.1 323.2L481 314.6L479.8 311.6L477.9 309.3L469.7 302L468.6 300.3L468 298.9L468.3 297.9L468.2 296.6L468.5 295.5L465 291.2L460.7 283.5L459.3 274.2L458.5 271.8L453.6 263.4L463.4 261L465.1 259.9L469.8 255.3L472.2 254.1L475.8 253.1L477.8 252.9L479.4 253.2L480.8 254L481.7 253.8L482.4 253.3L483.3 252.2L484.5 251.3L487.4 248.5L479.5 244.5L476.6 240.9L471.8 230.9L471.3 229.4L470.2 226.7L470.1 225.9L469.7 224.7L469.2 223.4L468 220.8L467.5 219.1L467.6 217L471.2 212.1L472 210.2L472.6 204.7L473.1 202.8L473.8 201.5L474.8 200.1L475.8 199.4L476.8 199.2L477.7 199.5L478.7 200L479.7 200.3L480.6 200.4L482.2 200.3L484.5 199.8L486.4 199L487.9 198.7L489.3 198.6L492 200.6L493.3 201.1H494.7L507.1 195.8L509.9 193.6L511.4 191.2L512.4 187.9L514.9 173.7L515 169.4Z" fill="white" stroke="#54AFF6" stroke-width="0.5" stroke-linecap="round" stroke-linejoin="round"/>
<path d="M792.7 400.6L782.4 403.9L781.7 406.5L777 415.7L776.5 417.7L776.2 420.9L777.2 425.1V426.9L776.4 429.3L772.5 435.8L768.9 439.8L765.9 442.7L763.8 445L761.5 447.6L758.7 453.3L755.3 454.6L747.8 451.7L750.1 442.8L751 441.5L751.3 440V438.7L748.1 431.4L741.9 430.9L739.3 429.1L737.4 427.5L735.7 424.6L734.1 423.8L731.6 423.3L721 424.6L713.4 423.9L709.7 423.5L712 415.3L719.4 402.1L724 396.4L729.7 391.9L748 383.6L753.3 379.3L756.8 373.8L759.8 366.8L762 359.5L762.6 356.5L773.9 357.9L770.2 364.3L767.5 367.7L767 369.9V371.3L769 374.1L771.6 378.8L772.7 380.1L773.6 380.8L779.4 384.7L780.5 385.7L784.2 387.5L793.9 387.6L794.3 388L792.7 400.6Z" fill="white" stroke="#54AFF6" stroke-width="0.5" stroke-linecap="round" stroke-linejoin="round"/>
</svg>
