<svg id="Dark_on_Light" data-name="Dark on Light" xmlns="http://www.w3.org/2000/svg" viewBox="0 0 1242.9 1065.34"><defs><style>.cls-1{fill:#234e70;}</style></defs><polygon class="cls-1" points="1242.9 710.23 1242.9 1065.34 177.56 1065.34 177.56 799.01 0 799.01 106.53 710.23 177.56 651.04 319.6 532.67 355.11 503.08 532.67 355.11 799.01 355.11 710.23 426.13 577.06 532.67 532.67 568.18 355.11 710.23 355.11 887.79 1065.35 887.79 1065.35 710.23 1242.9 710.23"/><polygon class="cls-1" points="1242.9 0 1242.9 443.89 1124.53 532.67 1065.35 577.06 887.79 710.23 621.45 710.23 710.23 639.21 843.4 532.67 887.79 497.16 1065.35 355.11 1065.35 177.55 355.11 177.55 355.11 355.11 177.56 355.11 177.56 0 1242.9 0"/></svg>